<?xml version="1.0" standalone="no"?>
<!DOCTYPE svg PUBLIC "-//W3C//DTD SVG 20010904//EN"
 "http://www.w3.org/TR/2001/REC-SVG-20010904/DTD/svg10.dtd">
<svg version="1.0" xmlns="http://www.w3.org/2000/svg"
 width="128.000000pt" height="128.000000pt" viewBox="0 0 128.000000 128.000000"
 preserveAspectRatio="xMidYMid meet">
<metadata>
Created by potrace 1.14, written by Peter Selinger 2001-2017
</metadata>
<g transform="translate(0.000000,128.000000) scale(0.100000,-0.100000)"
fill="#000000" stroke="none">
<path d="M640 1235 l0 -45 -280 0 -280 0 0 -550 0 -550 280 0 280 0 0 -45 0
-45 320 0 320 0 0 640 0 640 -320 0 -320 0 0 -45z m570 -595 l0 -550 -285 0
c-183 0 -285 4 -285 10 0 6 -97 10 -270 10 l-270 0 0 530 0 530 270 0 c173 0
270 4 270 10 0 6 102 10 285 10 l285 0 0 -550z"/>
<path d="M640 1157 c0 -7 -74 -56 -165 -108 -149 -85 -183 -109 -156 -109 5 0
78 40 163 89 l153 89 3 -74 c2 -41 4 -74 6 -74 1 0 65 36 142 80 76 44 142 80
146 80 26 0 -9 -25 -142 -100 l-150 -85 0 -417 0 -418 275 0 275 0 0 530 0
530 -275 0 c-221 0 -275 -3 -275 -13z m220 -392 l0 -195 -25 0 -25 0 0 195 0
195 25 0 25 0 0 -195z"/>
<path d="M380 765 l0 -195 25 0 25 0 0 195 0 195 -25 0 -25 0 0 -195z"/>
</g>
</svg>
