<?xml version="1.0" standalone="no"?>
<!DOCTYPE svg PUBLIC "-//W3C//DTD SVG 20010904//EN"
 "http://www.w3.org/TR/2001/REC-SVG-20010904/DTD/svg10.dtd">
<svg version="1.0" xmlns="http://www.w3.org/2000/svg"
 width="1000.000000pt" height="1000.000000pt" viewBox="0 0 1000.000000 1000.000000"
 preserveAspectRatio="xMidYMid meet">
<metadata>
Created by potrace 1.14, written by Peter Selinger 2001-2017
</metadata>
<g transform="translate(0.000000,1000.000000) scale(0.100000,-0.100000)"
fill="#000000" stroke="none">
<path d="M0 5000 l0 -5000 5000 0 5000 0 0 5000 0 5000 -5000 0 -5000 0 0
-5000z m3394 3582 c2 -4 -64 -264 -148 -577 l-153 -570 -676 -2 c-373 -1 -677
1 -677 5 0 4 68 262 152 574 l151 568 316 3 c797 7 1030 6 1035 -1z m3206 -37
c0 -22 -243 -949 -287 -1092 l-16 -53 -751 -2 -751 -3 -800 -2987 -800 -2988
-727 0 c-626 0 -728 2 -728 14 0 8 360 1357 799 2998 439 1641 868 3243 952
3560 l154 578 1478 0 1477 0 0 -25z m1420 8 c0 -10 -68 -273 -152 -585 l-152
-568 -518 0 c-285 0 -518 3 -518 8 -1 4 68 267 152 584 l153 578 518 0 c486 0
517 -1 517 -17z m-1730 -4087 c0 -7 -8 -40 -19 -72 -10 -33 -105 -384 -211
-781 l-194 -723 -618 0 c-488 0 -618 3 -618 13 0 10 402 1524 415 1565 7 19
1245 18 1245 -2z m1977 -3 c-39 -136 -417 -1557 -417 -1568 0 -13 -23 -15
-164 -15 -91 0 -167 3 -169 8 -2 4 90 356 205 782 114 426 208 783 208 793 0
15 15 17 171 17 158 0 171 -1 166 -17z m-507 -7 c0 -7 -8 -40 -19 -72 -10 -33
-105 -384 -211 -781 l-194 -723 -618 0 c-488 0 -618 3 -618 13 0 10 402 1524
415 1565 7 19 1245 18 1245 -2z m200 -2048 c0 -7 -59 -237 -132 -510 l-133
-498 -2087 0 c-1149 0 -2088 3 -2088 8 -1 4 59 233 132 509 l133 503 2088 0
c1663 0 2087 -3 2087 -12z"/>
</g>
</svg>
